# xmcd
#
# Track frame offsets:
#	150
#	9509
#	16289
#	46395
#	67932
#	88560
#	104626
#	119970
#	198638
#	233662
#	265070
#
# Disc length: 3693 seconds
#
# Revision: 0
# Processed by: cddbd v1.5.2PL0 Copyright (c) Steve Scherf et al.
# Submitted via: EasyCDDAExtractor 16.0.6.1
#
DISCID=930e6b0b
DTITLE=Γαϊτάνος Πέτρος - Ύμνοι της Μεγάλης Εβδομάδας-Π. Γαϊτάνος
DYEAR=2009
DGENRE=Βυζ. Εκκλησιαστική
TTITLE0=Γαϊτάνος Πέτρος - Ιδού ο Νυμφίος έρχεται [Ακολουθία Νυμφίου, πλ. δ΄]
TTITLE1=Γαϊτάνος Πέτρος - Τον νυμφώνα Σου βλέπω [Ακολουθία Νυμφίου, ήχος γ΄]
TTITLE2=Γαϊτάνος Πέτρος-χορ. Γεωργίου Ναούμ - Σήμερον κρεμάται επί ξύλου [διαβ
TTITLE2=Νικ. Τσακίρογλου, Μ. Πέμπτη, πλ. β΄]
TTITLE3=Γαϊτάνος Πέτρος - Εξέδυσάν με [διαβ. Γρ. Βαλτινός, Μεγάλη Πέμπτη, πλ. 
TTITLE3=β΄]
TTITLE4=Γαϊτάνος Πέτρος - Σήμερα μαύρος ουρανός [παραδ. παραλλ. Δωδεκανήσων]
TTITLE5=Γαϊτάνος Πέτρος - Επί ξύλου βλέπουσα [Μεγάλη Πέμπτη, ήχος β΄]
TTITLE6=Γαϊτάνος Πέτρος - Βλέπεις εκείνο το γυμνό [παραδ. Μυτιλήνης]
TTITLE7=Γαϊτάνος Πέτρος-χορ. Γεωργίου Ναούμ - Η ζωή εν τάφω [διαβ. Φιλ. Κομνην
TTITLE7=ού-Γρ. Βαλτινός, Μ. Παρασκευή, πλ. α΄]
TTITLE8=Γαϊτάνος Πέτρος-χορ. Γεωργίου Ναούμ - Άξιον εστί [διαβ. Φιλ. Κομνηνού-
TTITLE8=Γρ. Βαλτινός, Μεγάλη Παρασκευή, πλ. α΄]
TTITLE9=Γαϊτάνος Πέτρος-χορ. Γεωργίου Ναούμ - Αι γενεαί πάσαι [Μεγάλη Παρασκευ
TTITLE9=ή, ήχος γ΄]
TTITLE10=Γαϊτάνος Πέτρος - Ω γλυκύ μου έαρ [διαβ. Γρ. Βαλτινός, Μεγάλη Παρασκε
TTITLE10=υή, ήχος γ΄]
EXTD=
EXTT0=
EXTT1=
EXTT2=
EXTT3=
EXTT4=
EXTT5=
EXTT6=
EXTT7=
EXTT8=
EXTT9=
EXTT10=
PLAYORDER=
